<svg width="174" height="44" viewBox="0 0 174 44" fill="none" xmlns="http://www.w3.org/2000/svg">
<g clip-path="url(#clip0_407_275)">
<path d="M69.25 29.3097H43.41C43.4133 30.6714 43.6898 32.0186 44.2231 33.2715C44.7564 34.5244 45.5356 35.6576 46.5146 36.604C47.4937 37.5504 48.6526 38.2908 49.9229 38.7813C51.1932 39.2718 52.549 39.5025 53.91 39.4597C55.9724 39.5356 58.007 38.9658 59.73 37.8297C61.2597 36.7781 62.4071 35.2588 63 33.4997H68.78C67.9634 36.5436 66.1325 39.2176 63.59 41.0797C60.7749 43.0966 57.3707 44.1234 53.91 43.9997C51.0322 44.047 48.1929 43.3329 45.68 41.9297C43.2653 40.5551 41.2944 38.5183 40 36.0597C38.5782 33.3413 37.8694 30.3066 37.94 27.2397C37.8696 24.1894 38.5568 21.1693 39.94 18.4497C41.2144 16.0053 43.1745 13.9861 45.58 12.6397C48.1385 11.2584 51.0133 10.569 53.92 10.6397C56.7645 10.585 59.5739 11.2745 62.07 12.6397C64.3733 13.9257 66.2635 15.8401 67.52 18.1597C68.8244 20.5966 69.4852 23.3261 69.44 26.0897C69.4325 27.1656 69.3691 28.2404 69.25 29.3097V29.3097ZM62.53 19.6597C61.6443 18.2118 60.3643 17.0463 58.84 16.2997C57.2335 15.5184 55.4662 15.1245 53.68 15.1497C51.1203 15.0857 48.6358 16.0178 46.75 17.7497C44.7698 19.6334 43.5946 22.2096 43.47 24.9397H63.89C63.9345 23.0877 63.4636 21.2598 62.53 19.6597V19.6597Z" fill="#F3F4F6"/>
<path d="M81.2902 42.73C79.4487 41.9872 77.8396 40.7649 76.6302 39.19C75.4958 37.6877 74.8375 35.88 74.7402 34H80.2902C80.3508 34.7927 80.5857 35.5623 80.9781 36.2537C81.3705 36.9452 81.9107 37.5415 82.5602 38C84.1197 39.0922 85.9986 39.6341 87.9002 39.54C89.6193 39.6317 91.3206 39.1537 92.7402 38.18C93.2909 37.7966 93.7398 37.2848 94.0482 36.6889C94.3566 36.093 94.5152 35.4309 94.5102 34.76C94.5344 34.1069 94.3687 33.4609 94.0333 32.9C93.6979 32.3392 93.207 31.8876 92.6202 31.6C90.7578 30.709 88.7979 30.0378 86.7802 29.6C84.7797 29.1028 82.8179 28.4611 80.9102 27.68C79.3848 27.0087 78.0436 25.9796 77.0002 24.68C75.8681 23.2475 75.2927 21.4537 75.3802 19.63C75.3743 17.9987 75.8893 16.4082 76.8502 15.09C77.9264 13.642 79.3742 12.5121 81.0402 11.82C82.9976 10.9811 85.1111 10.5686 87.2402 10.61C90.3597 10.46 93.4314 11.4202 95.9102 13.32C97.0037 14.2277 97.8867 15.3624 98.498 16.6453C99.1093 17.9283 99.4342 19.3289 99.4502 20.75H94.0902C94.0616 19.9691 93.8686 19.2031 93.524 18.5018C93.1794 17.8005 92.6909 17.1797 92.0902 16.68C90.6818 15.7321 89.034 15.2018 87.3371 15.1505C85.6402 15.0992 83.9634 15.5289 82.5002 16.39C81.9666 16.7435 81.5303 17.2255 81.2315 17.7916C80.9327 18.3577 80.781 18.9899 80.7902 19.63C80.7689 20.1134 80.8466 20.596 81.0185 21.0483C81.1905 21.5005 81.4531 21.9129 81.7902 22.26C82.5322 22.9855 83.4179 23.5476 84.3902 23.91C85.8089 24.4468 87.2541 24.9108 88.7202 25.3C90.6476 25.7997 92.5414 26.421 94.3902 27.16C95.8364 27.7641 97.1183 28.7032 98.1302 29.9C99.225 31.2486 99.8029 32.9435 99.7602 34.68C99.7756 36.3884 99.2583 38.0592 98.2802 39.46C97.2247 40.93 95.7857 42.0819 94.1202 42.79C92.1895 43.6238 90.1031 44.0364 88.0002 44C85.6999 44.0442 83.4153 43.6118 81.2902 42.73V42.73Z" fill="#F3F4F6"/>
<path d="M107.46 6.24993C107.113 5.91486 106.839 5.51196 106.655 5.06635C106.471 4.62074 106.381 4.14199 106.39 3.65993C106.382 3.17654 106.472 2.69658 106.656 2.24949C106.84 1.8024 107.114 1.39761 107.46 1.05993C107.795 0.714587 108.199 0.442199 108.644 0.259808C109.09 0.0774178 109.568 -0.0110515 110.05 -6.54753e-05C110.519 -0.00783865 110.984 0.0824293 111.417 0.264959C111.849 0.44749 112.238 0.71826 112.56 1.05993C112.891 1.40483 113.151 1.81249 113.322 2.25899C113.494 2.70548 113.575 3.18179 113.56 3.65993C113.576 4.13669 113.495 4.61175 113.323 5.05675C113.152 5.50175 112.892 5.90755 112.56 6.24993C112.239 6.59293 111.85 6.86523 111.418 7.04947C110.985 7.2337 110.52 7.32581 110.05 7.31993C109.568 7.32903 109.089 7.23871 108.643 7.05462C108.198 6.87053 107.795 6.59661 107.46 6.24993V6.24993ZM112.65 11.6699V43.9999H107.28V11.6699H112.65Z" fill="#F3F4F6"/>
<path d="M167.57 12.6396C169.56 13.6989 171.183 15.3334 172.23 17.3296C173.433 19.6813 174.021 22.2993 173.94 24.9396V43.9996H168.63V25.7096C168.63 22.4796 167.84 20.0096 166.24 18.2996C165.409 17.4357 164.402 16.7601 163.288 16.3185C162.173 15.8769 160.977 15.6795 159.78 15.7396C158.542 15.6808 157.307 15.8899 156.157 16.3524C155.008 16.8149 153.972 17.52 153.12 18.4196C151.46 20.2096 150.64 22.7996 150.64 26.1796V43.9996H145.33V25.7096C145.33 22.483 144.533 20.013 142.94 18.2996C142.108 17.4373 141.101 16.7627 139.987 16.3212C138.873 15.8797 137.677 15.6814 136.48 15.7396C135.241 15.6801 134.003 15.8887 132.852 16.3512C131.701 16.8137 130.663 17.5192 129.81 18.4196C128.157 20.2063 127.33 22.793 127.33 26.1796V43.9996H122V11.6596H127.37V16.3296C128.41 14.6596 129.891 13.3098 131.65 12.4296C133.492 11.5171 135.524 11.0544 137.58 11.0796C140.099 11.0325 142.586 11.6609 144.78 12.8996C146.877 14.1343 148.513 16.0198 149.44 18.2696C150.292 16.0679 151.855 14.2133 153.88 12.9996C155.992 11.7326 158.417 11.0814 160.88 11.1196C163.201 11.0715 165.498 11.5934 167.57 12.6396V12.6396Z" fill="#F3F4F6"/>
<path d="M5.36 15.96H0V21.32H5.36V15.96Z" fill="#F3F4F6"/>
<path d="M32 12.55C30.2572 9.45864 27.6272 6.96104 24.45 5.38002C20.8193 3.6362 16.8265 2.77937 12.8 2.88002H0V7.24002H12.8C18.0667 7.24002 22.11 8.67668 24.93 11.55C27.75 14.4233 29.1567 18.4233 29.15 23.55C29.15 28.6233 27.7533 32.5667 24.96 35.38C22.1667 38.1933 18.1133 39.5934 12.8 39.58H5.37V24.17H0V44H12.8C16.8239 44.0969 20.8154 43.2582 24.46 41.55C27.6361 40.0136 30.2669 37.5433 32 34.47C33.8145 31.115 34.7179 27.343 34.62 23.53C34.7165 19.7044 33.8134 15.9199 32 12.55V12.55Z" fill="#F3F4F6"/>
</g>
<defs>
<clipPath id="clip0_407_275">
<rect width="173.94" height="44" fill="white"/>
</clipPath>
</defs>
</svg>
