{
  "asset": {
    "generator": "Khronos glTF Blender I/O v1.8.19",
    "version": "2.0"
  },
  "scene": 0,
  "scenes": [
    {
      "name": "Scene",
      "nodes": [0]
    }
  ],
  "nodes": [
    {
      "mesh": 0,
      "name": "final",
      "rotation": [0.7071068286895752, 0, 0, 0.7071067094802856]
    }
  ],
  "materials": [
    {
      "doubleSided": true,
      "name": "palette",
      "pbrMetallicRoughness": {
        "baseColorTexture": {
          "index": 0
        },
        "metallicFactor": 0
      }
    }
  ],
  "meshes": [
    {
      "name": "final",
      "primitives": [
        {
          "attributes": {
            "POSITION": 0,
            "NORMAL": 1,
            "TEXCOORD_0": 2
          },
          "indices": 3,
          "material": 0
        }
      ]
    }
  ],
  "textures": [
    {
      "sampler": 0,
      "source": 0
    }
  ],
  "images": [
    {
      "bufferView": 4,
      "mimeType": "image/png",
      "name": "programmer-bake"
    }
  ],
  "accessors": [
    {
      "bufferView": 0,
      "componentType": 5126,
      "count": 2290,
      "max": [-0.4000000059604645, 2.5999999046325684, 0.09999989718198776],
      "min": [-3.299999952316284, -3, -6],
      "type": "VEC3"
    },
    {
      "bufferView": 1,
      "componentType": 5126,
      "count": 2290,
      "type": "VEC3"
    },
    {
      "bufferView": 2,
      "componentType": 5126,
      "count": 2290,
      "type": "VEC2"
    },
    {
      "bufferView": 3,
      "componentType": 5123,
      "count": 5544,
      "type": "SCALAR"
    }
  ],
  "bufferViews": [
    {
      "buffer": 0,
      "byteLength": 27480,
      "byteOffset": 0
    },
    {
      "buffer": 0,
      "byteLength": 27480,
      "byteOffset": 27480
    },
    {
      "buffer": 0,
      "byteLength": 18320,
      "byteOffset": 54960
    },
    {
      "buffer": 0,
      "byteLength": 11088,
      "byteOffset": 73280
    },
    {
      "buffer": 0,
      "byteLength": 582087,
      "byteOffset": 84368
    }
  ],
  "samplers": [
    {
      "magFilter": 9729,
      "minFilter": 9987
    }
  ],
  "buffers": [
    {
      "byteLength": 666456,
      "uri": "data:application/octet-stream;base64,"
    }
  ]
}
